<svg id="Layer_1" data-name="Layer 1" xmlns="http://www.w3.org/2000/svg" xmlns:xlink="http://www.w3.org/1999/xlink" viewBox="0 0 636.12328 594.07395">
  <defs>
    <style>
      .cls-1 {
        fill: url(#linear-gradient);
      }

      .cls-2 {
        fill: url(#linear-gradient-2);
      }

      .cls-12, .cls-3, .cls-4, .cls-8, .cls-9 {
        fill: none;
      }

      .cls-3 {
        stroke: url(#linear-gradient-3);
      }

      .cls-4 {
        stroke: url(#linear-gradient-4);
      }

      .cls-5 {
        fill-opacity: 0.2;
        fill: url(#linear-gradient-5);
      }

      .cls-6 {
        fill: url(#linear-gradient-6);
      }

      .cls-7 {
        fill: url(#linear-gradient-7);
      }

      .cls-8 {
        stroke: url(#linear-gradient-8);
      }

      .cls-9 {
        stroke: url(#linear-gradient-9);
      }

      .cls-10 {
        filter: url(#filter-4);
      }

      .cls-11 {
        fill: url(#linear-gradient-10);
      }

      .cls-12 {
        stroke: #fff;
        stroke-width: 3.2px;
        opacity: 0.5;
        isolation: isolate;
      }

      .cls-13 {
        filter: url(#filter-6);
      }

      .cls-14 {
        fill: url(#linear-gradient-11);
      }

      .cls-15 {
        filter: url(#filter-8);
      }

      .cls-16 {
        fill: url(#linear-gradient-12);
      }
    </style>
    <linearGradient id="linear-gradient" x1="-319.24556" y1="808.76942" x2="-318.37565" y2="807.9915" gradientTransform="translate(-165596.77734 149241.23573) rotate(-163) scale(361.51183 235.94598)" gradientUnits="userSpaceOnUse">
      <stop offset="0" stop-color="#08abfc"/>
      <stop offset="1" stop-color="#a6dffb"/>
    </linearGradient>
    <linearGradient id="linear-gradient-2" x1="-316.80287" y1="808.56265" x2="-315.93296" y2="807.78472" gradientTransform="matrix(245.049, 74.919, 48.20965, -157.68665, 38683.82317, 151630.96789)" xlink:href="#linear-gradient"/>
    <linearGradient id="linear-gradient-3" x1="-318.84901" y1="808.91249" x2="-317.9791" y2="808.13457" gradientTransform="matrix(-581.02662, -177.63766, 103.87206, -339.75019, -268716.15585, 218567.18427)" xlink:href="#linear-gradient"/>
    <linearGradient id="linear-gradient-4" x1="-319.0795" y1="808.99488" x2="-318.20959" y2="808.21696" gradientTransform="translate(-240652.0983 314582.6939) rotate(-163) scale(434.33849 458.88631)" xlink:href="#linear-gradient"/>
    <linearGradient id="linear-gradient-5" x1="-318.25314" y1="809.1473" x2="-319.25314" y2="808.1473" gradientTransform="translate(-228056.74858 297869.41564) rotate(-163) scale(411.81468 434.57625)" gradientUnits="userSpaceOnUse">
      <stop offset="0" stop-color="#a389d4"/>
      <stop offset="1" stop-color="#899ed4"/>
    </linearGradient>
    <linearGradient id="linear-gradient-6" x1="-322.74525" y1="808.80377" x2="-321.87534" y2="808.02585" gradientTransform="translate(-85886.15519 191524.46591) rotate(-163) scale(81.31122 257.34042)" xlink:href="#linear-gradient"/>
    <linearGradient id="linear-gradient-7" x1="-319.20485" y1="808.71938" x2="-318.33494" y2="807.94146" gradientTransform="matrix(-361.38107, -110.48528, 62.82438, -205.48931, -165788.06497, 130939.74747)" xlink:href="#linear-gradient"/>
    <linearGradient id="linear-gradient-8" x1="-318.85483" y1="806.61565" x2="-317.98492" y2="805.83773" gradientTransform="matrix(-412.85284, 95.31459, -24.04027, -104.12985, -111830.99424, 114687.58285)" xlink:href="#linear-gradient"/>
    <linearGradient id="linear-gradient-9" x1="-319.84092" y1="805.21346" x2="-318.97101" y2="804.43554" gradientTransform="matrix(-159.08483, 36.72763, -15.66409, -67.84863, -37855.39221, 66816.63871)" xlink:href="#linear-gradient"/>
    <filter id="filter-4" x="-2.8" y="-8.5" width="105.7" height="117" name="filter-4">
      <feOffset result="shadowOffsetOuter1" in="SourceAlpha"/>
      <feGaussianBlur result="shadowBlurOuter1" stdDeviation="3" in="shadowOffsetOuter1"/>
      <feColorMatrix values="0 0 0 0 0 0 0 0 0 0 0 0 0 0 0 0 0 0 0.14815 0" in="shadowBlurOuter1"/>
    </filter>
    <linearGradient id="linear-gradient-10" x1="-319.2225" y1="807.16359" x2="-318.35259" y2="806.38567" gradientTransform="matrix(-317.32368, 5.53891, -1.84379, -105.63072, -99374.25787, 87091.71226)" xlink:href="#linear-gradient"/>
    <filter id="filter-6" x="-2.8" y="-8.5" width="105.7" height="117" name="filter-6">
      <feOffset result="shadowOffsetOuter1" in="SourceAlpha"/>
      <feGaussianBlur result="shadowBlurOuter1" stdDeviation="3" in="shadowOffsetOuter1"/>
      <feColorMatrix values="0 0 0 0 0 0 0 0 0 0 0 0 0 0 0 0 0 0 0.14815 0" in="shadowBlurOuter1"/>
    </filter>
    <linearGradient id="linear-gradient-11" x1="-319.2225" y1="807.16359" x2="-318.35259" y2="806.38567" gradientTransform="matrix(-317.32368, 5.53891, -1.84379, -105.63072, -99292.61981, 87162.14704)" xlink:href="#linear-gradient"/>
    <filter id="filter-8" x="-2.8" y="-8.5" width="105.7" height="117" name="filter-8">
      <feOffset result="shadowOffsetOuter1" in="SourceAlpha"/>
      <feGaussianBlur result="shadowBlurOuter1" stdDeviation="3" in="shadowOffsetOuter1"/>
      <feColorMatrix values="0 0 0 0 0 0 0 0 0 0 0 0 0 0 0 0 0 0 0.14815 0" in="shadowBlurOuter1"/>
    </filter>
    <linearGradient id="linear-gradient-12" x1="-319.2225" y1="807.16359" x2="-318.35259" y2="806.38567" gradientTransform="matrix(-317.32368, 5.53891, -1.84379, -105.63072, -99213.61989, 87229.38023)" xlink:href="#linear-gradient"/>
  </defs>
  <title>3D_laptop</title>
  <g id="v1-login-flow">
    <g id="TT_Landing_0908717_rsv2" data-name="TT Landing 0908717 rsv2">
      <g id="Hero-Illustration">
        <g id="Illustration">
          <g id="Group-29">
            <g id="Group-30">
              <g id="Group-27">
                <path id="Path-4" class="cls-1" d="M612.35153,471.78259s8.755,16.05915-.50456,18.71976S205.28274,594.05594,205.28274,594.05594l5.29091-18.51459Z"/>
                <path id="Path-4-Copy" class="cls-2" d="M10.91535,362.22481s-10.31993,11.94333-4.13119,19.327S205.2803,594.074,205.2803,594.074l5.73363-18.08041Z"/>
                <polygon id="Path-5" class="cls-3" points="612.403 471.795 421.667 268.598 10.589 362.149 210.474 575.536 612.403 471.795"/>
                <polygon id="Path-6" class="cls-4" points="421.68 268.595 428.369 10.047 18.124 103 10.554 362.161 421.68 268.595"/>
                <polygon id="Path-6-Copy" class="cls-5" points="411.689 259.496 419.786 19.061 26.658 110.345 20.061 351.286 411.689 259.496"/>
                <path id="Path-7" class="cls-6" d="M.40132,346.20857l1.23011-3.16091h0a1.59807,1.59807,0,0,0,.10843-.53961L8.09992,92.33049l10.02016,10.702L10.61917,362.19945,1.5538,352.33313h0A5.89327,5.89327,0,0,1,.40132,346.20857Z"/>
                <polygon id="Path-8" class="cls-7" points="428.372 10.057 416.017 0 8.065 92.309 18.055 103.027 428.372 10.057"/>
                <path id="Rectangle-23" class="cls-8" d="M409.77687,286.83157a9.1,9.1,0,0,1,8.88844,2.80193L484.932,364.00486a9.1,9.1,0,0,1-4.715,14.91309L131.99671,460.642a9.1,9.1,0,0,1-8.85578-2.7858L57.01575,384.0756a9.1,9.1,0,0,1,4.68244-14.92924Z"/>
                <path id="Rectangle-23-Copy" class="cls-9" d="M393.681,429.57526l52.06841,57.21716L317.74288,518.57194l-45.87665-59.15064Z"/>
              </g>
            </g>
          </g>
          <g id="Group-44">
            <g id="Path-9-Copy">
              <g class="cls-10">
                <path id="path-3" d="M471.81265,84.97843c2.0501-.34113,3.69431-1.63285,3.67243-2.88635l-.34579-35.81783c-.02187-1.253-1.70145-1.9997-3.75192-1.66783L162.89883,113.745c-2.05025.33184-3.69467,1.61146-3.67277,2.86606l.37093,37.25759c.02184,1.251,1.70123,1.98872,3.75155,1.64755Z"/>
              </g>
              <path id="path-3-2" data-name="path-3" class="cls-11" d="M471.81265,84.97843c2.0501-.34113,3.69431-1.63285,3.67243-2.88635l-.34579-35.81783c-.02187-1.253-1.70145-1.9997-3.75192-1.66783L162.89883,113.745c-2.05025.33184-3.69467,1.61146-3.67277,2.86606l.37093,37.25759c.02184,1.251,1.70123,1.98872,3.75155,1.64755Z"/>
            </g>
            <path id="Path-9" class="cls-12" d="M460.75624,59.99725,250.39867,108.627"/>
            <path id="Path-9-Copy-4" class="cls-12" d="M460.75624,74.40437,250.39867,123.0341"/>
          </g>
          <g id="Group-45">
            <g id="Path-9-Copy-2">
              <g class="cls-13">
                <path id="path-5-2" data-name="path-5" d="M553.45071,155.41322c2.0501-.34113,3.69431-1.63285,3.67243-2.88635l-.34579-35.81783c-.02187-1.253-1.70145-1.9997-3.75192-1.66783L244.53689,184.17973c-2.05025.33184-3.69467,1.61146-3.67277,2.86606l.37093,37.25759c.02184,1.251,1.70123,1.98872,3.75155,1.64755Z"/>
              </g>
              <path id="path-5-3" data-name="path-5" class="cls-14" d="M553.45071,155.41322c2.0501-.34113,3.69431-1.63285,3.67243-2.88635l-.34579-35.81783c-.02187-1.253-1.70145-1.9997-3.75192-1.66783L244.53689,184.17973c-2.05025.33184-3.69467,1.61146-3.67277,2.86606l.37093,37.25759c.02184,1.251,1.70123,1.98872,3.75155,1.64755Z"/>
            </g>
            <path id="Path-9-Copy-6" class="cls-12" d="M542.3943,130.432,332.03673,179.06177"/>
            <path id="Path-9-Copy-5" class="cls-12" d="M542.3943,144.83915,332.03673,193.46888"/>
          </g>
          <g id="Group-46">
            <g id="Path-9-Copy-3">
              <g class="cls-15">
                <path id="path-7-2" data-name="path-7" d="M632.45063,222.6464c2.0501-.34113,3.69431-1.63285,3.67243-2.88635l-.34579-35.81783c-.02187-1.253-1.70145-1.9997-3.75192-1.66783L323.53681,251.41292c-2.05025.33184-3.69467,1.61146-3.67277,2.86606l.37093,37.25759c.02184,1.251,1.70126,1.98872,3.75155,1.64755Z"/>
              </g>
              <path id="path-7-3" data-name="path-7" class="cls-16" d="M632.45063,222.6464c2.0501-.34113,3.69431-1.63285,3.67243-2.88635l-.34579-35.81783c-.02187-1.253-1.70145-1.9997-3.75192-1.66783L323.53681,251.41292c-2.05025.33184-3.69467,1.61146-3.67277,2.86606l.37093,37.25759c.02184,1.251,1.70126,1.98872,3.75155,1.64755Z"/>
            </g>
            <path id="Path-9-Copy-8" class="cls-12" d="M619.98148,198.1543,409.62392,246.784"/>
            <path id="Path-9-Copy-7" class="cls-12" d="M619.98148,212.56141,409.62392,261.19114"/>
          </g>
        </g>
      </g>
    </g>
  </g>
</svg>
