<svg id="Layer_1" data-name="Layer 1" xmlns="http://www.w3.org/2000/svg" viewBox="0 0 1194.85884 215.2">
  <defs>
    <style>
      .cls-1 {
        fill: #fff;
      }
    </style>
  </defs>
  <title>treasure-logo</title>
  <g>
    <path class="cls-1" d="M208.2,0,104.1,60.1,0,0V8.7L102,67.6c.1.1.2.1.3.2l17.8,10.3c.1.1.2.1.3.2l36.1,20.8h0c.1,0,.1.1.2.1h0a.09794.09794,0,0,1,.1.1h.1a3.52928,3.52928,0,0,0,1.4.3h0a3.52915,3.52915,0,0,0,1.4-.3h.1a.09794.09794,0,0,0,.1-.1h.1c.1,0,.1-.1.2-.1h0L208,71.5V62.8L158.3,91.5l-10.6-6.1L208,50.6V41.9L140.3,81l-10.6-6.1,78.4-45.3V20.9l-86,49.6-10.6-6.1L208,8.7V0Z"/>
    <path class="cls-1" d="M136.6,196.5l7.6-4.4V105.2c0-.1,0-.1-.1-.2a.09794.09794,0,0,0-.1-.1c0-.1-.1-.1-.1-.2a.09794.09794,0,0,0-.1-.1c0-.1-.1-.1-.1-.2s-.1-.1-.1-.2l-.1-.1c0-.1-.1-.1-.1-.2l-.1-.1c0-.1-.1-.1-.1-.2l-.1-.1a.34916.34916,0,0,0-.2-.1l-.1-.1-.1-.1c-.1,0-.1-.1-.2-.1a.09794.09794,0,0,1-.1-.1L0,20.9v8.7l136.6,78.8Z"/>
    <path class="cls-1" d="M118.4,207l7.6-4.4V115.7c0-.1,0-.1-.1-.2a.09794.09794,0,0,0-.1-.1c0-.1-.1-.1-.1-.2s0-.1-.1-.2c0-.1-.1-.1-.1-.2s-.1-.1-.1-.2l-.1-.1c0-.1-.1-.1-.1-.2l-.1-.1c0-.1-.1-.1-.2-.2l-.1-.1c-.1,0-.1-.1-.2-.1l-.1-.1a.34913.34913,0,0,0-.2-.1c-.1,0-.1-.1-.2-.1a.09794.09794,0,0,1-.1-.1L0,41.8v8.7L118.4,119Z"/>
    <path class="cls-1" d="M64.1,192.1l7.6,4.4V112.9L82.3,119v83.6l7.6,4.4V123.4l10.6,6.1V213l3.8,2.2L108,213V126.1c0-.1,0-.1-.1-.2a.09794.09794,0,0,0-.1-.1c0-.1-.1-.1-.1-.2s0-.1-.1-.2c0-.1-.1-.1-.1-.2s-.1-.1-.1-.2l-.1-.1c0-.1-.1-.1-.1-.2l-.1-.1c0-.1-.1-.1-.1-.2l-.1-.1c-.1,0-.1-.1-.2-.1l-.1-.1-.1-.1c-.1,0-.1-.1-.2-.1a.09794.09794,0,0,1-.1-.1L0,62.8v8.7l64.1,37Z"/>
  </g>
  <g>
    <path class="cls-1" d="M321.66519,83.66952v70.36663h-13.9711V83.66952H282.30758V70.7207h64.57374V83.49915H321.66519Z"/>
    <path class="cls-1" d="M466.65793,97.811c0,13.80072-5.96327,22.31968-18.0602,25.89765l21.80855,30.32751H452.68684L432.75247,126.094h-18.401v27.9422H400.38041V70.7207h31.009c12.77844,0,21.80855,2.21493,27.26068,6.47441C463.93187,81.4546,466.65793,88.26977,466.65793,97.811Zm-18.74172,11.75617c2.89644-2.38531,4.25948-6.47441,4.25948-11.92655s-1.53342-9.20048-4.42986-11.245-8.17821-3.06683-15.67489-3.06683H414.35151v29.98675h17.54907C439.738,113.31552,445.19015,112.12286,447.91621,109.56717Z"/>
    <path class="cls-1" d="M583.53811,70.7207V84.01028h-44.469v21.97893h39.86874v12.43768H539.06912v22.31968h45.832v13.28958H524.92763V70.7207Z"/>
    <path class="cls-1" d="M652.88247,135.12406l-8.34857,18.9121H629.54051L666.17205,70.7207h14.99338L717.797,154.03616H702.80359L694.455,135.12407Zm35.95-13.1192L673.66873,87.75863,658.505,122.00486Z"/>
    <path class="cls-1" d="M792.76385,81.625a17.953,17.953,0,0,0-10.05237,2.55569,8.573,8.573,0,0,0-3.9187,7.49669,8.66525,8.66525,0,0,0,3.9187,7.66706c2.55569,1.70379,8.17818,3.74835,16.69715,5.79289s14.99335,4.941,19.25284,8.68934,6.47439,9.20048,6.47439,16.52679a21.97851,21.97851,0,0,1-8.17818,17.71945c-5.45216,4.60024-12.60805,6.81517-21.63819,6.81517a50.27431,50.27431,0,0,1-34.587-13.46l8.85974-10.56352c8.34857,7.32631,17.20832,10.90428,26.2384,10.90428,4.60026,0,8.17818-1.02227,10.73387-2.89645a8.87563,8.87563,0,0,0,3.9187-7.66707,8.43442,8.43442,0,0,0-3.74836-7.49669c-2.55569-1.70379-6.81517-3.40759-12.94883-4.941a142.087,142.087,0,0,1-13.97112-4.0891,34.41725,34.41725,0,0,1-8.519-4.77062c-4.941-3.74835-7.32629-9.37086-7.32629-17.20831,0-7.66707,2.72608-13.63034,8.34857-17.88982s12.60805-6.304,20.78629-6.304a51.35642,51.35642,0,0,1,15.84525,2.55569,43.55658,43.55658,0,0,1,13.63034,7.32631l-7.49668,10.56351a26.67793,26.67793,0,0,0-10.05237-5.45214A50.98109,50.98109,0,0,0,792.76385,81.625Z"/>
    <path class="cls-1" d="M899.42127,134.95368c3.74836,4.42986,9.03008,6.64479,15.50452,6.64479s11.75616-2.21493,15.50452-6.64479,5.79288-10.56352,5.79288-18.0602V70.7207h13.97112v46.68392c0,11.92655-3.2372,21.29741-9.882,27.77181s-14.99335,9.71162-25.3865,9.71162-18.74172-3.23721-25.3865-9.71162-9.882-15.67489-9.882-27.77182V70.7207h13.97112v46.17278C893.62834,124.39017,895.50252,130.52382,899.42127,134.95368Z"/>
    <path class="cls-1" d="M1076.786,97.811c0,13.80072-5.96327,22.31968-18.06021,25.89765l21.80852,30.32751h-17.88977L1042.71019,126.094h-18.40094v27.9422h-13.97112V70.7207h31.009c12.77844,0,21.80852,2.21493,27.26068,6.47441C1073.88962,81.4546,1076.786,88.26977,1076.786,97.811Zm-18.74172,11.75617c2.89647-2.38531,4.25948-6.47441,4.25948-11.92655s-1.5334-9.20048-4.42987-11.245-8.17818-3.06683-15.67491-3.06683H1024.3092v29.98675h17.549C1049.69575,113.31552,1055.1479,112.12286,1058.04432,109.56717Z"/>
    <path class="cls-1" d="M1193.49583,70.7207V84.01028h-44.469v21.97893h39.86874v12.43768h-39.86874v22.31968h45.832v13.28958h-59.97352V70.7207Z"/>
  </g>
</svg>
